<svg width="70" height="70" viewBox="0 0 70 70" fill="none" xmlns="http://www.w3.org/2000/svg">
<g clip-path="url(#clip0_350_427)">
<path opacity="0.939" fill-rule="evenodd" clip-rule="evenodd" d="M8.64647 0.167128C28.6182 0.0901968 48.5899 0.0132661 68.5616 -0.0636651C69.1365 0.424964 69.2524 1.0146 68.9089 1.70524C67.3446 4.0637 65.6967 6.36228 63.9651 8.60102C62.4785 8.72678 62.0449 8.11567 62.6644 6.76769C63.4436 5.60588 64.2563 4.46798 65.1024 3.35398C65.1929 3.26285 65.1925 3.17208 65.1013 3.08164C53.9395 6.89555 42.7652 10.6833 31.5785 14.445C37.8102 17.8481 44.0418 21.251 50.2735 24.6541C53.5055 20.0275 56.7558 15.4079 60.0246 10.795C61.459 10.5018 61.9378 11.0673 61.4609 12.4916C58.1148 17.3505 54.7518 22.1976 51.3721 27.0329C50.9237 27.2905 50.4697 27.2922 50.0104 27.0381C46.9344 25.3204 43.8414 23.6302 40.7311 21.9674C36.271 25.1058 31.8348 28.2776 27.4228 31.4827C26.4728 31.8662 25.8589 31.5735 25.5811 30.6046C24.5163 23.5663 23.4226 16.5348 22.2997 9.51046C17.7058 7.05435 13.1119 4.59825 8.5179 2.14213C7.94111 1.42529 7.98397 0.766959 8.64647 0.167128ZM13.6937 2.46262C27.242 2.25169 40.8136 2.17671 54.4085 2.23771C44.1766 4.00714 33.9478 5.79409 23.7222 7.59856C20.3631 5.91503 17.0203 4.20305 13.6937 2.46262ZM53.056 4.62594C53.2429 4.60388 53.4246 4.62588 53.6009 4.69193C45.1692 7.53865 36.7374 10.3854 28.3057 13.2321C27.9118 13.4551 27.7088 13.7964 27.6969 14.2557C27.3442 16.9805 26.9916 19.7054 26.639 22.4302C25.8824 18.1825 25.2078 13.9183 24.6152 9.63772C34.1248 8.03336 43.6049 6.36276 53.056 4.62594ZM29.6781 16.0183C32.6253 17.5231 35.5363 19.1007 38.4114 20.7508C35.0459 23.2466 31.651 25.7107 28.227 28.1433C28.6428 24.12 29.1265 20.0783 29.6781 16.0183Z" fill="white" fill-opacity="0.75"/>
<path opacity="0.879" fill-rule="evenodd" clip-rule="evenodd" d="M26.2023 32.781C27.6776 32.8 28.0886 33.4565 27.4355 34.7508C26.9022 34.9536 26.3581 35.1146 25.8033 35.2337C24.8795 34.9352 24.6277 34.3461 25.0475 33.4663C25.3898 33.1481 25.7749 32.9198 26.2023 32.781Z" fill="white" fill-opacity="0.75"/>
<path opacity="0.885" fill-rule="evenodd" clip-rule="evenodd" d="M22.5311 34.1569C23.8291 34.1166 24.2625 34.705 23.8315 35.9221C23.2768 36.2818 22.7108 36.6245 22.1333 36.95C20.6827 37.2069 20.2039 36.6415 20.697 35.2533C21.3057 34.8671 21.9171 34.5016 22.5311 34.1569Z" fill="white" fill-opacity="0.75"/>
<path opacity="0.89" fill-rule="evenodd" clip-rule="evenodd" d="M18.8638 36.6222C19.9234 36.8749 20.2209 37.5093 19.7563 38.5252C19.236 38.9584 18.7156 39.3916 18.1953 39.8248C16.9629 40.0035 16.4843 39.4834 16.7595 38.2644C17.3371 37.5185 18.0385 36.9711 18.8638 36.6222Z" fill="white" fill-opacity="0.75"/>
<path opacity="0.883" fill-rule="evenodd" clip-rule="evenodd" d="M15.3366 40.0401C16.2852 40.0992 16.7184 40.5969 16.636 41.533C16.226 42.493 15.5477 43.1764 14.6013 43.5834C13.766 43.4152 13.4464 42.9171 13.6423 42.0892C14.05 41.248 14.6148 40.565 15.3366 40.0401Z" fill="white" fill-opacity="0.75"/>
<path opacity="0.884" fill-rule="evenodd" clip-rule="evenodd" d="M18.1997 40.9822C19.5842 40.707 20.1991 41.2493 20.0443 42.6092C19.886 42.7687 19.7278 42.9281 19.5695 43.0876C19.126 43.1182 18.6952 43.1879 18.2767 43.2968C17.2908 43.0686 16.9708 42.4797 17.3167 41.5303C17.5596 41.2396 17.8538 41.0569 18.1997 40.9822Z" fill="white" fill-opacity="0.75"/>
<path opacity="0.894" fill-rule="evenodd" clip-rule="evenodd" d="M21.8774 41.2404C22.7147 41.3557 23.5325 41.5568 24.3308 41.8438C24.9624 42.3403 25.0326 42.9074 24.5416 43.5451C24.3055 43.7358 24.0335 43.8277 23.7256 43.8206C22.9493 43.7148 22.1996 43.5134 21.4764 43.2165C21.0082 42.4123 21.1418 41.7535 21.8774 41.2404Z" fill="white" fill-opacity="0.75"/>
<path opacity="0.899" fill-rule="evenodd" clip-rule="evenodd" d="M25.9699 43.131C26.3808 43.107 26.7894 43.1281 27.1957 43.1944C27.7601 43.6186 28.2839 44.0931 28.7672 44.6181C29.0267 45.7227 28.5975 46.2463 27.4796 46.1891C26.872 45.8125 26.3031 45.3834 25.7725 44.902C25.4627 44.2639 25.5285 43.6736 25.9699 43.131Z" fill="white" fill-opacity="0.75"/>
<path opacity="0.88" fill-rule="evenodd" clip-rule="evenodd" d="M10.1751 43.4642C11.2896 43.4649 11.7229 44.008 11.475 45.0933C10.9122 45.8667 10.1643 46.1645 9.23163 45.987C8.50294 45.3543 8.50049 44.7189 9.22429 44.0806C9.55004 43.8719 9.86698 43.6664 10.1751 43.4642Z" fill="white" fill-opacity="0.75"/>
<path opacity="0.891" fill-rule="evenodd" clip-rule="evenodd" d="M12.901 44.1346C13.6688 44.1066 14.1242 44.468 14.2669 45.2188C14.0612 45.9588 13.8144 46.686 13.5264 47.4004C13.0579 47.8473 12.5361 47.9174 11.9612 47.6107C11.6956 47.3772 11.5583 47.0826 11.5493 46.7271C11.7009 45.9678 11.9478 45.2405 12.2898 44.5455C12.481 44.3703 12.6847 44.2334 12.901 44.1346Z" fill="white" fill-opacity="0.75"/>
<path opacity="0.897" fill-rule="evenodd" clip-rule="evenodd" d="M6.91651 45.9279C8.19331 45.8076 8.672 46.3504 8.3526 47.5564C7.79316 48.2355 7.13709 48.7827 6.38441 49.1981C5.4576 49.0295 5.11507 48.4861 5.35684 47.5679C5.81247 46.9495 6.33237 46.4028 6.91651 45.9279Z" fill="white" fill-opacity="0.75"/>
<path opacity="0.894" fill-rule="evenodd" clip-rule="evenodd" d="M28.9798 46.7961C29.5859 46.6736 30.0632 46.8532 30.4117 47.3353C30.6235 47.9862 30.785 48.6437 30.8959 49.3079C30.7711 50.2812 30.2278 50.6465 29.2661 50.4036C29.0614 50.291 28.9018 50.1327 28.7876 49.9288C28.6322 49.2015 28.4706 48.4757 28.3026 47.7519C28.4326 47.3471 28.6584 47.0286 28.9798 46.7961Z" fill="white" fill-opacity="0.75"/>
<path opacity="0.895" fill-rule="evenodd" clip-rule="evenodd" d="M12.1019 48.7676C12.97 48.7927 13.4029 49.2449 13.4007 50.1243C13.494 50.7595 13.4964 51.3948 13.4081 52.0307C12.7754 52.7593 12.14 52.7618 11.5017 52.038C11.35 51.3651 11.2339 50.6847 11.1534 49.9968C11.2249 49.38 11.541 48.9703 12.1019 48.7676Z" fill="white" fill-opacity="0.75"/>
<path opacity="0.888" fill-rule="evenodd" clip-rule="evenodd" d="M4.07044 49.4794C5.24836 49.4049 5.72706 49.9477 5.50653 51.108C5.20237 51.6767 4.86404 52.2227 4.49154 52.7459C2.99352 53.1809 2.46942 52.6383 2.91928 51.1179C3.20702 50.4861 3.59074 49.9399 4.07044 49.4794Z" fill="white" fill-opacity="0.75"/>
<path opacity="0.89" fill-rule="evenodd" clip-rule="evenodd" d="M29.1337 51.4254C30.1311 51.4425 30.5642 51.9402 30.4331 52.9183C30.2463 53.5242 30.0215 54.1151 29.759 54.6911C29.0759 55.2765 28.4402 55.2336 27.8521 54.5623C27.7656 53.2821 28.1928 52.2364 29.1337 51.4254Z" fill="white" fill-opacity="0.75"/>
<path opacity="0.89" fill-rule="evenodd" clip-rule="evenodd" d="M13.073 53.3937C13.4568 53.3579 13.8202 53.4246 14.1631 53.5938C14.7697 54.2321 15.1811 54.9795 15.3973 55.8359C15.3513 56.4987 14.9895 56.8632 14.3122 56.9294C13.2855 56.4308 12.6469 55.6162 12.3963 54.4857C12.4179 53.9827 12.6434 53.6188 13.073 53.3937Z" fill="white" fill-opacity="0.75"/>
<path opacity="0.895" fill-rule="evenodd" clip-rule="evenodd" d="M2.45228 53.5708C3.26294 53.5852 3.67302 53.9922 3.68254 54.7916C3.5692 55.437 3.41279 56.073 3.21329 56.6998C2.74976 57.2808 2.18281 57.3965 1.51246 57.0468C1.29839 56.8183 1.16117 56.5465 1.1008 56.2314C1.2709 55.5164 1.47244 54.8121 1.70544 54.1184C1.90864 53.8495 2.15758 53.667 2.45228 53.5708Z" fill="white" fill-opacity="0.75"/>
<path opacity="0.881" fill-rule="evenodd" clip-rule="evenodd" d="M26.5624 55.5205C27.6729 55.4241 28.1514 55.9216 27.9979 57.0129C27.3751 58.0106 26.492 58.5361 25.3486 58.5891C24.4956 57.9777 24.4476 57.297 25.2046 56.5471C25.6435 56.1712 26.0962 55.829 26.5624 55.5205Z" fill="white" fill-opacity="0.75"/>
<path opacity="0.893" fill-rule="evenodd" clip-rule="evenodd" d="M16.3542 56.7854C17.2735 56.9684 18.1373 57.3055 18.9454 57.7967C19.4825 59.0459 19.0762 59.6377 17.7267 59.5716C16.9663 59.3431 16.3067 58.9598 15.7477 58.4218C15.5146 57.6916 15.7168 57.1461 16.3542 56.7854Z" fill="white" fill-opacity="0.75"/>
<path opacity="0.901" fill-rule="evenodd" clip-rule="evenodd" d="M22.0771 57.7166C23.3986 57.5135 23.9681 58.056 23.7856 59.3441C23.6211 59.5556 23.4174 59.7152 23.1746 59.823C22.3648 60.0073 21.548 60.0557 20.7241 59.9686C19.9968 59.3295 19.9943 58.6941 20.7167 58.0622C21.1863 57.9399 21.6399 57.8247 22.0771 57.7166Z" fill="white" fill-opacity="0.75"/>
<path opacity="0.898" fill-rule="evenodd" clip-rule="evenodd" d="M1.24455 58.2053C1.88712 58.0739 2.4098 58.2534 2.81261 58.744C2.90637 59.5153 2.90934 60.2868 2.82153 61.0589C2.1865 62.0641 1.50583 62.1121 0.779487 61.2029C0.685734 60.4316 0.682762 59.66 0.77057 58.888C0.905415 58.6392 1.06341 58.4116 1.24455 58.2053Z" fill="white" fill-opacity="0.75"/>
<path opacity="0.878" fill-rule="evenodd" clip-rule="evenodd" d="M1.80645 62.6969C2.61594 62.6183 3.09394 62.9797 3.24044 63.7807C3.52577 64.5034 3.57396 65.2294 3.38501 65.959C2.40368 66.6534 1.72195 66.429 1.33982 65.286C1.01959 64.5685 0.971407 63.8423 1.19526 63.1078C1.38642 62.9326 1.59015 62.7956 1.80645 62.6969Z" fill="white" fill-opacity="0.75"/>
<path opacity="0.892" fill-rule="evenodd" clip-rule="evenodd" d="M4.4216 69.9039C4.10387 69.9051 3.78613 69.9063 3.4684 69.9075C2.62674 69.2758 2.37393 68.4597 2.71002 67.4593C3.13213 67.0188 3.60847 66.9489 4.13903 67.2496C4.75992 67.8251 5.01227 68.5277 4.8961 69.3573C4.80315 69.6096 4.64498 69.7919 4.4216 69.9039Z" fill="white" fill-opacity="0.75"/>
</g>
<defs>
<clipPath id="clip0_350_427">
<rect width="69.72" height="69.72" fill="white" transform="translate(0 0.268555) rotate(-0.220702)"/>
</clipPath>
</defs>
</svg>
