<svg width="162" height="44" viewBox="0 0 162 44" fill="none" xmlns="http://www.w3.org/2000/svg">
<path d="M61.096 37.128C60.4347 37.128 59.848 36.9573 59.336 36.616C58.8453 36.2747 58.6107 35.7627 58.632 35.08C58.6747 33.8853 58.76 32.5627 58.888 31.112C59.0373 29.6613 59.208 28.1893 59.4 26.696C59.592 25.1813 59.784 23.7307 59.976 22.344C60.1893 20.9573 60.3813 19.72 60.552 18.632C60.168 18.5893 59.7947 18.5573 59.432 18.536C59.0693 18.5147 58.7387 18.504 58.44 18.504C57.544 18.504 56.7333 18.5893 56.008 18.76C55.304 18.9307 54.7067 19.2293 54.216 19.656C54.216 18.312 54.3227 17.224 54.536 16.392C54.7707 15.5387 55.1867 14.92 55.784 14.536C56.4027 14.152 57.2987 13.96 58.472 13.96C59.3253 13.96 60.2747 14.0347 61.32 14.184C62.3867 14.312 63.464 14.4507 64.552 14.6C65.64 14.7493 66.6533 14.824 67.592 14.824C68.36 14.824 69.0427 14.7493 69.64 14.6C70.2587 14.4507 70.728 14.184 71.048 13.8C71.5173 13.9493 71.88 14.28 72.136 14.792C72.392 15.2827 72.52 15.8267 72.52 16.424C72.52 16.9573 72.4027 17.48 72.168 17.992C71.9333 18.4827 71.56 18.8987 71.048 19.24C70.536 19.56 69.8427 19.72 68.968 19.72C68.5627 19.72 68.0613 19.688 67.464 19.624C66.888 19.5387 66.2693 19.4533 65.608 19.368C65.3733 20.648 65.128 22.184 64.872 23.976C64.6373 25.7467 64.4347 27.656 64.264 29.704C64.1147 31.752 64.0187 33.832 63.976 35.944C63.592 36.3493 63.1333 36.648 62.6 36.84C62.088 37.032 61.5867 37.128 61.096 37.128ZM77.3485 37.224C75.7485 37.224 74.4258 36.904 73.3805 36.264C72.3352 35.624 71.5565 34.7813 71.0445 33.736C70.5538 32.6693 70.3085 31.5387 70.3085 30.344C70.3085 29.2133 70.5112 28.0827 70.9165 26.952C71.3432 25.8213 71.9512 24.7973 72.7405 23.88C73.5512 22.9413 74.5325 22.1947 75.6845 21.64C76.8365 21.064 78.1592 20.776 79.6525 20.776C81.2525 20.776 82.5645 21.1067 83.5885 21.768C84.6338 22.408 85.4018 23.2613 85.8925 24.328C86.4045 25.3947 86.6605 26.536 86.6605 27.752C86.6605 28.8613 86.4578 29.9813 86.0525 31.112C85.6472 32.2213 85.0392 33.2453 84.2285 34.184C83.4392 35.1013 82.4685 35.8373 81.3165 36.392C80.1645 36.9467 78.8418 37.224 77.3485 37.224ZM78.2125 34.504C78.7885 34.504 79.2685 34.2053 79.6525 33.608C80.0365 33.0107 80.3245 32.2533 80.5165 31.336C80.7085 30.3973 80.8045 29.448 80.8045 28.488C80.8045 27.6347 80.7192 26.8347 80.5485 26.088C80.3992 25.32 80.1645 24.7013 79.8445 24.232C79.5245 23.7413 79.1085 23.496 78.5965 23.496C78.0418 23.496 77.5618 23.7947 77.1565 24.392C76.7725 24.9893 76.4845 25.7467 76.2925 26.664C76.1005 27.5813 76.0045 28.5307 76.0045 29.512C76.0045 30.3653 76.0792 31.176 76.2285 31.944C76.3992 32.6907 76.6445 33.3093 76.9645 33.8C77.2845 34.2693 77.7005 34.504 78.2125 34.504ZM94.3848 37.128C93.4248 37.128 92.6141 36.7333 91.9528 35.944C91.3128 35.1547 90.9928 34.0987 90.9928 32.776C90.9928 32.0507 91.0781 31.272 91.2488 30.44C91.4194 29.608 91.5901 28.8187 91.7608 28.072C91.9101 27.5173 92.0274 27.0053 92.1128 26.536C92.2194 26.0453 92.2728 25.6507 92.2728 25.352C92.2728 24.968 92.1874 24.6907 92.0168 24.52C91.8674 24.3493 91.6861 24.264 91.4728 24.264C91.2594 24.264 91.0461 24.3387 90.8328 24.488C90.6194 24.616 90.4488 24.8187 90.3208 25.096L90.0648 25C90.0648 24.1253 90.2781 23.3787 90.7048 22.76C91.1314 22.1413 91.6754 21.672 92.3368 21.352C92.9981 21.032 93.6701 20.872 94.3528 20.872C94.9074 20.872 95.4408 20.9893 95.9528 21.224C96.4648 21.4373 96.8808 21.7787 97.2008 22.248C97.5421 22.7173 97.7128 23.304 97.7128 24.008C97.7128 24.4347 97.6488 24.9467 97.5208 25.544C97.4141 26.1413 97.2861 26.76 97.1368 27.4C96.9874 28.0613 96.8381 28.7333 96.6888 29.416C96.5608 30.0773 96.4968 30.664 96.4968 31.176C96.4968 31.6453 96.5714 32.0293 96.7208 32.328C96.8701 32.6267 97.0941 32.776 97.3928 32.776C97.9474 32.776 98.5661 32.264 99.2488 31.24C99.9528 30.216 100.518 28.84 100.945 27.112C101.03 26.7707 101.105 26.408 101.169 26.024C101.233 25.64 101.265 25.2453 101.265 24.84C101.265 24.52 101.243 24.2 101.201 23.88C101.158 23.5387 101.094 23.1973 101.009 22.856V22.632C101.35 22.056 101.787 21.6187 102.321 21.32C102.875 21.0213 103.43 20.872 103.985 20.872C104.731 20.872 105.403 21.128 106.001 21.64C106.598 22.152 106.897 22.8987 106.897 23.88C106.897 24.456 106.79 25.128 106.577 25.896C106.363 26.6427 106.129 27.4213 105.873 28.232C105.617 29.0213 105.382 29.8 105.169 30.568C104.955 31.336 104.849 32.0187 104.849 32.616C104.849 33.4907 105.158 33.928 105.777 33.928C105.947 33.928 106.15 33.8853 106.385 33.8C106.641 33.6933 106.875 33.4907 107.089 33.192L107.313 33.256C107.313 34.024 107.099 34.7067 106.673 35.304C106.267 35.88 105.745 36.328 105.105 36.648C104.465 36.968 103.803 37.128 103.121 37.128C102.246 37.128 101.457 36.808 100.753 36.168C100.07 35.528 99.7288 34.4827 99.7288 33.032V32.968C98.8541 34.4613 97.9474 35.528 97.0088 36.168C96.0701 36.808 95.1954 37.128 94.3848 37.128ZM132.97 19.88C132.116 19.88 131.412 19.624 130.858 19.112C130.324 18.5787 130.058 17.9173 130.058 17.128C130.058 16.2747 130.378 15.5387 131.018 14.92C131.658 14.3013 132.436 13.992 133.354 13.992C134.207 13.992 134.9 14.2587 135.434 14.792C135.988 15.3253 136.266 15.9867 136.266 16.776C136.266 17.6293 135.946 18.3653 135.306 18.984C134.666 19.5813 133.887 19.88 132.97 19.88ZM130.73 37.128C129.898 37.128 129.151 36.84 128.49 36.264C127.828 35.6667 127.498 34.7173 127.498 33.416C127.498 32.6693 127.594 31.976 127.786 31.336C127.999 30.6747 128.234 30.0347 128.49 29.416C128.767 28.7973 129.002 28.2 129.194 27.624C129.407 27.0267 129.514 26.44 129.514 25.864C129.514 25.352 129.428 24.9893 129.258 24.776C129.087 24.5413 128.884 24.424 128.65 24.424C128.287 24.424 127.935 24.6587 127.594 25.128L127.37 25C127.455 24.1467 127.722 23.4213 128.17 22.824C128.639 22.2053 129.204 21.7253 129.866 21.384C130.548 21.0427 131.22 20.872 131.882 20.872C132.692 20.872 133.396 21.1387 133.994 21.672C134.591 22.184 134.89 23.0267 134.89 24.2C134.89 24.904 134.783 25.6507 134.57 26.44C134.378 27.208 134.143 27.976 133.866 28.744C133.61 29.512 133.375 30.2267 133.162 30.888C132.97 31.5493 132.874 32.1147 132.874 32.584C132.874 32.9893 132.948 33.2773 133.098 33.448C133.268 33.6187 133.45 33.704 133.642 33.704C133.834 33.704 134.015 33.6507 134.186 33.544C134.378 33.416 134.516 33.2773 134.602 33.128L134.826 33.192C134.826 33.9813 134.612 34.6747 134.186 35.272C133.78 35.848 133.268 36.3067 132.65 36.648C132.031 36.968 131.391 37.128 130.73 37.128ZM142.61 37.096C141.821 37.096 141.106 36.7867 140.466 36.168C139.826 35.528 139.506 34.6427 139.506 33.512C139.506 32.9573 139.581 32.328 139.73 31.624C139.88 30.92 140.04 30.2053 140.21 29.48C140.402 28.7547 140.573 28.072 140.722 27.432C140.872 26.792 140.946 26.2693 140.946 25.864C140.946 25.4373 140.861 25.1067 140.69 24.872C140.52 24.616 140.296 24.488 140.018 24.488C139.656 24.488 139.261 24.7013 138.834 25.128L138.642 25C138.621 24.6587 138.696 24.2533 138.866 23.784C139.037 23.3147 139.293 22.8667 139.634 22.44C139.997 21.992 140.456 21.6187 141.01 21.32C141.565 21.0213 142.226 20.872 142.994 20.872C144.125 20.872 144.957 21.2027 145.49 21.864C146.045 22.504 146.322 23.2933 146.322 24.232C146.322 24.5733 146.29 24.904 146.226 25.224C146.674 24.5627 147.229 23.9013 147.89 23.24C148.552 22.5573 149.277 21.992 150.066 21.544C150.877 21.096 151.709 20.872 152.562 20.872C153.565 20.872 154.248 21.192 154.61 21.832C154.973 22.472 155.154 23.272 155.154 24.232C155.154 25.128 155.058 26.088 154.866 27.112C154.674 28.136 154.482 29.128 154.29 30.088C154.098 31.0267 154.002 31.816 154.002 32.456C154.002 33.3093 154.248 33.736 154.738 33.736C154.994 33.736 155.218 33.6613 155.41 33.512C155.602 33.3413 155.73 33.1813 155.794 33.032L156.018 33.128C156.018 33.9173 155.794 34.6107 155.346 35.208C154.92 35.8053 154.376 36.2747 153.714 36.616C153.053 36.936 152.381 37.096 151.698 37.096C150.866 37.096 150.13 36.808 149.49 36.232C148.85 35.656 148.53 34.7173 148.53 33.416C148.53 32.648 148.626 31.816 148.818 30.92C149.032 30.024 149.234 29.16 149.426 28.328C149.618 27.496 149.714 26.8133 149.714 26.28C149.714 25.96 149.65 25.7147 149.522 25.544C149.416 25.352 149.213 25.256 148.914 25.256C148.424 25.256 147.88 25.48 147.282 25.928C146.706 26.376 146.205 26.9733 145.778 27.72C145.373 28.4667 145.17 29.288 145.17 30.184C145.17 30.76 145.234 31.3147 145.362 31.848C145.512 32.3813 145.586 32.9573 145.586 33.576C145.586 34.728 145.288 35.6027 144.69 36.2C144.093 36.7973 143.4 37.096 142.61 37.096Z" fill="#222222"/>
<path d="M114.316 37.128C113.548 37.128 112.866 36.8187 112.268 36.2C111.671 35.56 111.372 34.664 111.372 33.512C111.372 32.9573 111.436 32.328 111.564 31.624C111.692 30.92 111.842 30.2053 112.012 29.48C112.183 28.7333 112.332 28.04 112.46 27.4C112.588 26.7387 112.652 26.1947 112.652 25.768C112.652 25.32 112.567 24.968 112.396 24.712C112.247 24.4347 112.044 24.296 111.788 24.296C111.383 24.296 110.967 24.5733 110.54 25.128L110.348 25C110.327 24.6587 110.402 24.2533 110.572 23.784C110.743 23.3147 111.01 22.8667 111.372 22.44C111.735 21.992 112.194 21.6187 112.748 21.32C113.324 21.0213 113.996 20.872 114.764 20.872C115.895 20.872 116.716 21.2027 117.228 21.864C117.74 22.504 117.997 23.2827 117.997 24.2C117.997 24.3493 117.986 24.5093 117.964 24.68C117.964 24.8293 117.954 24.9787 117.932 25.128C118.7 23.7413 119.5 22.6853 120.332 21.96C121.186 21.2133 121.975 20.84 122.7 20.84C123.383 20.84 123.884 21.1067 124.205 21.64C124.524 22.1733 124.684 22.8133 124.684 23.56C124.684 24.2427 124.546 24.936 124.269 25.64C124.012 26.344 123.618 26.9307 123.085 27.4C122.572 27.848 121.943 28.0613 121.196 28.04L121.068 27.976C121.047 27.4213 120.866 26.984 120.524 26.664C120.183 26.344 119.799 26.184 119.372 26.184C118.796 26.184 118.252 26.472 117.74 27.048C117.25 27.624 117.004 28.456 117.004 29.544C117.004 30.2053 117.079 30.92 117.228 31.688C117.378 32.456 117.452 33.1067 117.452 33.64C117.452 34.28 117.303 34.8667 117.004 35.4C116.706 35.9333 116.322 36.36 115.852 36.68C115.383 36.9787 114.871 37.128 114.316 37.128Z" fill="#015FC9"/>
<circle cx="22" cy="22" r="21.5" fill="#FE9D3D" stroke="#FE9D3D" stroke-dasharray="2 2"/>
<g clip-path="url(#clip0_554_17)">
<path opacity="0.912" fill-rule="evenodd" clip-rule="evenodd" d="M37.8879 20.0487C37.8879 20.3116 37.8879 20.5745 37.8879 20.8374C37.6487 21.4467 37.2321 21.9256 36.6378 22.2741C36.36 22.4055 36.0822 22.537 35.8044 22.6685C33.0737 23.4047 30.3355 24.1184 27.5897 24.8094C26.8034 25.9879 26.0394 27.1804 25.2979 28.387C24.6135 29.2601 23.7504 29.9268 22.7085 30.3871C21.6424 30.7884 20.5709 31.1734 19.4941 31.542C18.907 31.4461 18.6987 31.1269 18.8691 30.5843C19.7322 29.1758 20.5953 27.7673 21.4585 26.3588C21.4188 26.34 21.3791 26.3212 21.3394 26.3024C19.2794 26.7673 17.1959 26.9082 15.0891 26.725C14.4883 26.6415 13.903 26.5006 13.3331 26.3024C13.0135 26.7371 12.7159 27.1879 12.4402 27.6546C11.7819 28.238 10.9981 28.5103 10.0889 28.4715C9.7438 28.316 9.61482 28.0625 9.70194 27.7109C10.0973 26.6821 10.5041 25.6586 10.9222 24.6404C9.73704 23.2657 8.56634 21.8854 7.41016 20.4994C7.41016 20.3116 7.41016 20.1238 7.41016 19.936C7.51706 19.8631 7.61627 19.7786 7.70779 19.6825C8.42211 19.4947 9.13643 19.3068 9.85075 19.1191C10.272 19.0427 10.6688 19.099 11.0413 19.2881C12.0027 20.1135 12.9551 20.9492 13.8986 21.7952C15.9049 21.2876 17.909 20.7712 19.9108 20.2459C18.3133 19.349 16.7061 18.4663 15.0891 17.5979C14.923 17.3668 14.8733 17.1133 14.9403 16.8373C15.0098 16.6964 15.1189 16.5932 15.2677 16.5274C16.6098 16.299 17.959 16.1206 19.3155 15.9922C20.1153 16.0065 20.8892 16.1473 21.6371 16.4147C22.5375 16.8503 23.4304 17.301 24.3158 17.7669C24.536 18.2324 24.3772 18.439 23.8395 18.3866C23.065 17.9449 22.2713 17.5317 21.4585 17.1472C20.6198 16.8132 19.7468 16.6817 18.8393 16.7528C17.8825 16.8701 16.93 17.0109 15.982 17.1753C17.6567 18.1277 19.3433 19.0667 21.0418 19.9923C24.1541 19.1855 27.2693 18.3873 30.3875 17.5979C31.6976 17.2083 32.9675 17.3021 34.1972 17.8796C34.5443 18.0532 34.8816 18.241 35.2092 18.443C36.1615 18.5611 36.9651 18.9462 37.62 19.5979C37.6958 19.7608 37.7851 19.9111 37.8879 20.0487ZM19.7917 30.6406C21.1591 28.3154 22.558 26.0054 23.9884 23.7108C24.2381 23.4575 24.2481 23.2039 24.0181 22.9502C23.8556 22.9092 23.6969 22.9185 23.5419 22.9784C23.4161 23.162 23.2772 23.331 23.1252 23.4854C20.1109 24.2338 17.1048 25.0038 14.1069 25.7954C13.9528 25.7555 13.8239 25.6804 13.72 25.57C13.9632 25.2036 14.1914 24.828 14.4046 24.4432C14.5077 23.9499 14.2993 23.6682 13.7795 23.5981C13.2551 23.6729 12.7491 23.8043 12.2616 23.9925C12.115 24.2386 12.1646 24.4358 12.4104 24.584C12.7978 24.5719 13.1748 24.5156 13.5414 24.415C12.9684 25.3212 12.4029 26.232 11.8449 27.1475C11.4931 27.481 11.0665 27.6688 10.5651 27.7109C10.9442 26.6626 11.341 25.6203 11.7556 24.584C11.7124 24.5052 11.6826 24.4207 11.6663 24.3305C10.5182 22.9929 9.37731 21.6501 8.24353 20.3022C8.8388 20.1519 9.43407 20.0017 10.0293 19.8515C10.1881 19.8139 10.3468 19.8139 10.5055 19.8515C11.4362 20.6384 12.349 21.4459 13.2438 22.2741C13.4002 22.413 13.5788 22.5163 13.7795 22.584C19.5156 21.1342 25.25 19.6788 30.9828 18.2176C31.8901 17.9883 32.7631 18.0728 33.6019 18.4711C33.0885 18.6175 32.5725 18.7583 32.0542 18.8937C31.8846 19.0379 31.835 19.2163 31.9054 19.4289C32.0003 19.5302 32.1194 19.5865 32.2626 19.5979C33.0611 19.4023 33.8549 19.1957 34.6437 18.9782C34.7679 19.0511 34.8969 19.1169 35.0306 19.1754C35.611 19.253 36.1467 19.4408 36.6378 19.7388C37.189 20.1326 37.2584 20.5927 36.8461 21.1191C36.3259 21.6292 35.7009 21.9766 34.971 22.1614C32.7068 22.7609 30.4448 23.3149 28.185 23.8235C28.3885 23.5323 28.577 23.2318 28.7505 22.922C28.8043 22.8543 28.8737 22.8074 28.9588 22.7812C31.3175 22.1714 33.6787 21.5705 36.0425 20.9783C36.2121 20.8341 36.2618 20.6557 36.1913 20.443C36.0965 20.3418 35.9774 20.2855 35.8342 20.274C33.6715 20.8186 31.5087 21.3632 29.3458 21.9079C29.1906 21.6406 28.9624 21.5655 28.6612 21.6825C27.3514 23.6733 26.0716 25.6827 24.8217 27.7109C24.1877 28.6543 23.3246 29.3397 22.2323 29.7673C21.419 30.0645 20.6055 30.3556 19.7917 30.6406ZM22.4704 24.3869C22.5331 24.3785 22.5926 24.3878 22.649 24.415C22.453 24.7203 22.2645 25.0301 22.0835 25.3446C20.1122 25.8866 18.0982 26.1213 16.0415 26.0489C18.1967 25.5109 20.3397 24.9569 22.4704 24.3869Z" fill="white"/>
<path opacity="0.82" fill-rule="evenodd" clip-rule="evenodd" d="M28.9588 19.6542C29.4959 19.6167 29.6546 19.8233 29.435 20.274C29.2212 20.426 29.0227 20.4072 28.8398 20.2176C28.7392 19.9997 28.7788 19.8119 28.9588 19.6542Z" fill="white"/>
<path opacity="0.815" fill-rule="evenodd" clip-rule="evenodd" d="M26.9352 20.1611C27.4319 20.1719 27.5708 20.3878 27.3519 20.809C26.8983 20.9755 26.6899 20.8347 26.7268 20.3865C26.7679 20.2823 26.8373 20.2071 26.9352 20.1611Z" fill="white"/>
<path opacity="0.852" fill-rule="evenodd" clip-rule="evenodd" d="M24.7921 20.7249C25.1212 20.6443 25.3196 20.757 25.3874 21.063C25.3188 21.378 25.1204 21.4813 24.7921 21.3728C24.5573 21.157 24.5573 20.941 24.7921 20.7249Z" fill="white"/>
<path opacity="0.821" fill-rule="evenodd" clip-rule="evenodd" d="M22.7087 21.2317C23.1059 21.1687 23.2944 21.319 23.2742 21.6824C23.0898 22.0103 22.8517 22.0479 22.5599 21.7951C22.4921 21.5742 22.5417 21.3864 22.7087 21.2317Z" fill="white"/>
<path opacity="0.833" fill-rule="evenodd" clip-rule="evenodd" d="M20.6848 21.7388C21.1498 21.7753 21.2887 21.9913 21.1015 22.3867C20.591 22.5796 20.3826 22.4199 20.4764 21.9078C20.5446 21.8438 20.6141 21.7874 20.6848 21.7388Z" fill="white"/>
<path opacity="0.846" fill-rule="evenodd" clip-rule="evenodd" d="M18.5417 22.3019C19.0686 22.2945 19.2075 22.5105 18.9584 22.9499C18.463 23.082 18.2745 22.9036 18.3929 22.4146C18.4522 22.3827 18.5017 22.3452 18.5417 22.3019Z" fill="white"/>
</g>
<defs>
<clipPath id="clip0_554_17">
<rect width="30.3788" height="15.5498" fill="white" transform="translate(7.32837 15.9639)"/>
</clipPath>
</defs>
</svg>
