<svg width="1307" height="353" viewBox="0 0 1307 353" fill="none" xmlns="http://www.w3.org/2000/svg">
<path d="M-147.32 -56.4098L74.6925 103.714C123.226 138.719 185.023 150.082 243.067 134.675L431.415 84.6807C493.424 68.2214 559.454 82.363 609.021 122.718L783.698 264.935C828.204 301.171 886.264 316.467 943.058 306.919L1285.78 249.3" stroke="white" stroke-opacity="0.3"/>
<path d="M-165.308 -41.7333L56.7042 118.391C105.238 153.395 167.035 164.758 225.078 149.352L413.427 99.3572C475.436 82.8979 541.466 97.0395 591.032 137.395L765.709 279.611C810.216 315.848 868.276 331.144 925.07 321.595L1267.79 263.977" stroke="white" stroke-opacity="0.3"/>
<path d="M-183.296 -27.058L38.7159 133.066C87.2496 168.071 149.046 179.434 207.09 164.027L395.439 114.033C457.448 97.5732 523.478 111.715 573.044 152.07L747.721 294.287C792.228 330.523 850.288 345.819 907.081 336.271L1249.8 278.652" stroke="white" stroke-opacity="0.3"/>
<path d="M-201.285 -12.381L20.7275 147.743C69.2612 182.748 131.058 194.111 189.102 178.704L377.45 128.71C439.459 112.25 505.489 126.392 555.056 166.747L729.732 308.964C774.239 345.2 832.299 360.496 889.093 350.948L1231.81 293.329" stroke="white" stroke-opacity="0.3"/>
<path d="M-219.305 2.2932L2.70007 162.385C51.2325 197.383 113.031 208.739 171.079 193.326L359.439 143.314C421.453 126.849 487.484 140.983 537.049 181.331L711.718 323.521C756.223 359.751 814.284 375.04 871.081 365.486L1213.82 307.833" stroke="white" stroke-opacity="0.3"/>
</svg>
